<svg width="66" height="15" viewBox="0 0 66 15" fill="none" xmlns="http://www.w3.org/2000/svg">
<path d="M19.2956 6.7639V9.17955H18.4819V6.13324H19.2449L19.2956 6.7639ZM19.183 7.54941H18.9577C18.9577 7.33731 18.9831 7.1421 19.0338 6.96379C19.0863 6.7836 19.1623 6.62782 19.2618 6.49643C19.3632 6.36316 19.488 6.25993 19.6363 6.18673C19.7845 6.11353 19.9563 6.07693 20.1515 6.07693C20.2866 6.07693 20.4105 6.09757 20.5231 6.13887C20.6358 6.17828 20.7324 6.24116 20.8131 6.3275C20.8957 6.41197 20.9595 6.52271 21.0046 6.65972C21.0496 6.79487 21.0721 6.95722 21.0721 7.1468V9.17955H20.2613V7.23689C20.2613 7.098 20.2425 6.99101 20.205 6.91593C20.1674 6.84085 20.114 6.7883 20.0445 6.75827C19.9769 6.72823 19.8953 6.71322 19.7996 6.71322C19.6945 6.71322 19.6025 6.7348 19.5237 6.77797C19.4467 6.82114 19.3829 6.88121 19.3322 6.95816C19.2815 7.03324 19.244 7.12146 19.2196 7.22281C19.1952 7.32417 19.183 7.43303 19.183 7.54941ZM20.9961 7.4565L20.7061 7.4931C20.7061 7.29414 20.7305 7.10926 20.7793 6.93845C20.83 6.76765 20.9042 6.61749 21.0018 6.48798C21.1012 6.35847 21.2242 6.25805 21.3706 6.18673C21.517 6.11353 21.6859 6.07693 21.8774 6.07693C22.0238 6.07693 22.157 6.09851 22.2772 6.14168C22.3973 6.18298 22.4996 6.24961 22.584 6.34158C22.6704 6.43167 22.7361 6.54992 22.7811 6.69633C22.828 6.84273 22.8515 7.02198 22.8515 7.23408V9.17955H22.0378V7.23408C22.0378 7.0933 22.0191 6.98632 21.9815 6.91311C21.9459 6.83804 21.8933 6.78642 21.8239 6.75827C21.7563 6.72823 21.6756 6.71322 21.5817 6.71322C21.4841 6.71322 21.3987 6.73293 21.3255 6.77234C21.2523 6.80988 21.1913 6.86244 21.1425 6.93001C21.0937 6.99758 21.0571 7.07641 21.0327 7.16651C21.0083 7.25472 20.9961 7.35139 20.9961 7.4565ZM25.1236 8.49258V7.13554C25.1236 7.03793 25.1076 6.95441 25.0757 6.88496C25.0438 6.81364 24.9941 6.75827 24.9265 6.71885C24.8608 6.67943 24.7754 6.65972 24.6703 6.65972C24.5802 6.65972 24.5023 6.67568 24.4366 6.70759C24.3709 6.73762 24.3202 6.78173 24.2846 6.83991C24.2489 6.89622 24.2311 6.96285 24.2311 7.03981H23.4202C23.4202 6.9103 23.4503 6.78736 23.5103 6.67099C23.5704 6.55461 23.6577 6.45232 23.7722 6.3641C23.8867 6.27401 24.0227 6.20362 24.1804 6.15294C24.3399 6.10227 24.5183 6.07693 24.7153 6.07693C24.9518 6.07693 25.1621 6.11634 25.346 6.19518C25.5299 6.27401 25.6745 6.39226 25.7796 6.54992C25.8866 6.70759 25.9401 6.90467 25.9401 7.14117V8.44472C25.9401 8.61177 25.9504 8.74879 25.971 8.85577C25.9917 8.96088 26.0217 9.05286 26.0611 9.13169V9.17955H25.2418C25.2024 9.09696 25.1724 8.99373 25.1517 8.86985C25.133 8.74409 25.1236 8.61834 25.1236 8.49258ZM25.2306 7.32417L25.2362 7.78309H24.7829C24.6759 7.78309 24.583 7.79529 24.5042 7.81969C24.4253 7.84409 24.3606 7.87881 24.3099 7.92386C24.2592 7.96703 24.2217 8.01771 24.1973 8.07589C24.1748 8.13408 24.1635 8.1979 24.1635 8.26735C24.1635 8.33679 24.1795 8.39967 24.2114 8.45598C24.2433 8.51041 24.2893 8.55358 24.3493 8.58549C24.4094 8.61552 24.4798 8.63054 24.5605 8.63054C24.6825 8.63054 24.7885 8.60614 24.8786 8.55734C24.9687 8.50854 25.0382 8.44847 25.087 8.37715C25.1377 8.30582 25.1639 8.23825 25.1658 8.17444L25.3798 8.51792C25.3498 8.59488 25.3085 8.67465 25.2559 8.75723C25.2052 8.83982 25.1405 8.91771 25.0616 8.99092C24.9828 9.06224 24.888 9.12136 24.7773 9.16829C24.6665 9.21334 24.5351 9.23586 24.3831 9.23586C24.1898 9.23586 24.0143 9.19738 23.8566 9.12043C23.7008 9.04159 23.577 8.93367 23.485 8.79665C23.3949 8.65775 23.3498 8.50009 23.3498 8.32365C23.3498 8.16411 23.3799 8.0224 23.4399 7.89852C23.5 7.77464 23.5882 7.67047 23.7046 7.58601C23.8228 7.49967 23.9702 7.43491 24.1466 7.39174C24.3231 7.34669 24.5276 7.32417 24.7604 7.32417H25.2306ZM27.359 6.7836V9.17955H26.5482V6.13324H27.3084L27.359 6.7836ZM27.2408 7.54941H27.0212C27.0212 7.32417 27.0503 7.12146 27.1085 6.94127C27.1667 6.7592 27.2483 6.60435 27.3534 6.47672C27.4585 6.34721 27.5833 6.24867 27.7279 6.1811C27.8743 6.11165 28.0376 6.07693 28.2178 6.07693C28.3604 6.07693 28.4909 6.09757 28.6091 6.13887C28.7273 6.18016 28.8287 6.24585 28.9132 6.33595C28.9995 6.42604 29.0652 6.54523 29.1102 6.69351C29.1572 6.84179 29.1806 7.02292 29.1806 7.23689V9.17955H28.3642V7.23408C28.3642 7.09893 28.3454 6.99382 28.3078 6.91875C28.2703 6.84367 28.2149 6.79111 28.1417 6.76108C28.0704 6.72917 27.9822 6.71322 27.8771 6.71322C27.7682 6.71322 27.6734 6.7348 27.5927 6.77797C27.5139 6.82114 27.4482 6.88121 27.3956 6.95816C27.345 7.03324 27.3065 7.12146 27.2802 7.22281C27.2539 7.32417 27.2408 7.43303 27.2408 7.54941ZM31.7258 6.13324H32.4606V9.07819C32.4606 9.35598 32.3987 9.59154 32.2748 9.78487C32.1528 9.98008 31.982 10.1274 31.7624 10.2269C31.5428 10.3283 31.2875 10.3789 30.9966 10.3789C30.869 10.3789 30.7338 10.362 30.5912 10.3283C30.4504 10.2945 30.3153 10.2419 30.1858 10.1706C30.0581 10.0993 29.9511 10.0092 29.8648 9.9003L30.2224 9.42168C30.3162 9.53054 30.4251 9.61501 30.5489 9.67507C30.6728 9.73701 30.8098 9.76798 30.96 9.76798C31.1064 9.76798 31.2303 9.74076 31.3316 9.68633C31.433 9.63378 31.5109 9.55588 31.5653 9.45265C31.6198 9.35129 31.647 9.22835 31.647 9.08382V6.8371L31.7258 6.13324ZM29.6762 7.69299V7.63387C29.6762 7.40113 29.7043 7.18997 29.7606 7.00039C29.8188 6.80894 29.9005 6.64471 30.0056 6.50769C30.1126 6.37067 30.2421 6.26462 30.3941 6.18954C30.5461 6.11447 30.7179 6.07693 30.9093 6.07693C31.112 6.07693 31.2819 6.11447 31.4189 6.18954C31.5559 6.26462 31.6686 6.37161 31.7568 6.51051C31.845 6.64752 31.9135 6.80988 31.9623 6.99758C32.013 7.1834 32.0524 7.38705 32.0805 7.60853V7.73804C32.0524 7.95014 32.0102 8.14722 31.9539 8.32928C31.8975 8.51135 31.8234 8.67089 31.7314 8.80791C31.6395 8.94305 31.525 9.04816 31.3879 9.12324C31.2528 9.19832 31.0914 9.23586 30.9037 9.23586C30.716 9.23586 30.5461 9.19738 30.3941 9.12043C30.2439 9.04347 30.1154 8.93554 30.0084 8.79665C29.9014 8.65775 29.8188 8.49446 29.7606 8.30676C29.7043 8.11906 29.6762 7.91448 29.6762 7.69299ZM30.487 7.63387V7.69299C30.487 7.81875 30.4992 7.93606 30.5236 8.04492C30.548 8.15379 30.5855 8.25045 30.6362 8.33492C30.6888 8.4175 30.7535 8.48226 30.8305 8.52918C30.9093 8.57423 31.0022 8.59675 31.1092 8.59675C31.2575 8.59675 31.3786 8.56578 31.4724 8.50384C31.5663 8.44003 31.6366 8.35275 31.6836 8.24201C31.7305 8.13127 31.7577 8.00363 31.7652 7.85911V7.49028C31.7615 7.37203 31.7455 7.26598 31.7174 7.17214C31.6892 7.07641 31.6498 6.99476 31.5991 6.92719C31.5484 6.85962 31.4827 6.80707 31.402 6.76953C31.3213 6.73199 31.2256 6.71322 31.1148 6.71322C31.0079 6.71322 30.915 6.73762 30.8361 6.78642C30.7592 6.83334 30.6944 6.8981 30.6419 6.98069C30.5912 7.06327 30.5527 7.16087 30.5264 7.27349C30.5001 7.38423 30.487 7.50436 30.487 7.63387ZM34.3498 8.60238C34.4493 8.60238 34.5375 8.58361 34.6145 8.54607C34.6914 8.50666 34.7515 8.45223 34.7946 8.38278C34.8397 8.31145 34.8631 8.22793 34.865 8.1322H35.628C35.6261 8.34618 35.5689 8.53669 35.4563 8.70374C35.3437 8.86891 35.1926 8.99936 35.003 9.09509C34.8134 9.18893 34.6013 9.23586 34.3667 9.23586C34.1302 9.23586 33.9237 9.19644 33.7473 9.11761C33.5727 9.03878 33.4273 8.92991 33.3109 8.79102C33.1945 8.65025 33.1072 8.48695 33.0491 8.30113C32.9909 8.11343 32.9618 7.9126 32.9618 7.69862V7.61698C32.9618 7.40113 32.9909 7.20029 33.0491 7.01447C33.1072 6.82677 33.1945 6.66348 33.3109 6.52458C33.4273 6.38381 33.5727 6.27401 33.7473 6.19518C33.9219 6.11634 34.1264 6.07693 34.3611 6.07693C34.6107 6.07693 34.8294 6.12479 35.0171 6.22051C35.2066 6.31624 35.3549 6.45326 35.4619 6.63157C35.5708 6.808 35.6261 7.01729 35.628 7.25941H34.865C34.8631 7.15806 34.8416 7.06609 34.8003 6.9835C34.7609 6.90091 34.7027 6.83522 34.6257 6.78642C34.5506 6.73574 34.4577 6.7104 34.347 6.7104C34.2287 6.7104 34.1321 6.73574 34.057 6.78642C33.9819 6.83522 33.9237 6.90279 33.8824 6.98913C33.8411 7.0736 33.812 7.17026 33.7952 7.27912C33.7801 7.38611 33.7726 7.49873 33.7726 7.61698V7.69862C33.7726 7.81687 33.7801 7.93043 33.7952 8.03929C33.8102 8.14816 33.8383 8.24482 33.8796 8.32928C33.9228 8.41375 33.9819 8.48038 34.057 8.52918C34.1321 8.57798 34.2297 8.60238 34.3498 8.60238ZM35.9687 7.68736V7.62824C35.9687 7.40488 36.0006 7.19935 36.0644 7.01166C36.1282 6.82208 36.2211 6.65785 36.3431 6.51895C36.4651 6.38006 36.6153 6.27213 36.7936 6.19518C36.9719 6.11634 37.1765 6.07693 37.4074 6.07693C37.6382 6.07693 37.8438 6.11634 38.024 6.19518C38.2041 6.27213 38.3552 6.38006 38.4772 6.51895C38.6011 6.65785 38.695 6.82208 38.7588 7.01166C38.8226 7.19935 38.8545 7.40488 38.8545 7.62824V7.68736C38.8545 7.90884 38.8226 8.11437 38.7588 8.30395C38.695 8.49164 38.6011 8.65588 38.4772 8.79665C38.3552 8.93554 38.2051 9.04347 38.0268 9.12043C37.8485 9.19738 37.6439 9.23586 37.413 9.23586C37.1821 9.23586 36.9766 9.19738 36.7964 9.12043C36.6181 9.04347 36.467 8.93554 36.3431 8.79665C36.2211 8.65588 36.1282 8.49164 36.0644 8.30395C36.0006 8.11437 35.9687 7.90884 35.9687 7.68736ZM36.7795 7.62824V7.68736C36.7795 7.815 36.7908 7.93418 36.8133 8.04492C36.8358 8.15567 36.8715 8.25327 36.9203 8.33773C36.971 8.42032 37.0367 8.48507 37.1174 8.532C37.1981 8.57892 37.2966 8.60238 37.413 8.60238C37.5256 8.60238 37.6223 8.57892 37.703 8.532C37.7837 8.48507 37.8485 8.42032 37.8973 8.33773C37.9461 8.25327 37.9817 8.15567 38.0042 8.04492C38.0287 7.93418 38.0409 7.815 38.0409 7.68736V7.62824C38.0409 7.50436 38.0287 7.38799 38.0042 7.27912C37.9817 7.16838 37.9451 7.07078 37.8944 6.98632C37.8456 6.89998 37.7809 6.83241 37.7002 6.7836C37.6195 6.7348 37.5219 6.7104 37.4074 6.7104C37.2929 6.7104 37.1953 6.7348 37.1146 6.7836C37.0357 6.83241 36.971 6.89998 36.9203 6.98632C36.8715 7.07078 36.8358 7.16838 36.8133 7.27912C36.7908 7.38799 36.7795 7.50436 36.7795 7.62824ZM41.1519 8.5151V4.85502H41.9684V9.17955H41.2336L41.1519 8.5151ZM39.2262 7.69299V7.63387C39.2262 7.40113 39.2524 7.18997 39.305 7.00039C39.3575 6.80894 39.4345 6.64471 39.5359 6.50769C39.6372 6.37067 39.762 6.26462 39.9103 6.18954C40.0586 6.11447 40.2275 6.07693 40.4171 6.07693C40.5954 6.07693 40.7512 6.11447 40.8845 6.18954C41.0196 6.26462 41.1341 6.37161 41.2279 6.51051C41.3237 6.64752 41.4006 6.80988 41.4588 6.99758C41.517 7.1834 41.5592 7.38705 41.5855 7.60853V7.73804C41.5592 7.95014 41.517 8.14722 41.4588 8.32928C41.4006 8.51135 41.3237 8.67089 41.2279 8.80791C41.1341 8.94305 41.0196 9.04816 40.8845 9.12324C40.7493 9.19832 40.5916 9.23586 40.4115 9.23586C40.2219 9.23586 40.053 9.19738 39.9047 9.12043C39.7583 9.04347 39.6344 8.93554 39.533 8.79665C39.4336 8.65775 39.3575 8.49446 39.305 8.30676C39.2524 8.11906 39.2262 7.91448 39.2262 7.69299ZM40.037 7.63387V7.69299C40.037 7.81875 40.0464 7.93606 40.0652 8.04492C40.0858 8.15379 40.1187 8.25045 40.1637 8.33492C40.2106 8.4175 40.2707 8.48226 40.3439 8.52918C40.419 8.57423 40.51 8.59675 40.617 8.59675C40.7559 8.59675 40.8704 8.56578 40.9605 8.50384C41.0506 8.44003 41.1191 8.35275 41.166 8.24201C41.2148 8.13127 41.243 8.00363 41.2505 7.85911V7.49028C41.2448 7.37203 41.2279 7.26598 41.1998 7.17214C41.1735 7.07641 41.1341 6.99476 41.0815 6.92719C41.0309 6.85962 40.967 6.80707 40.8901 6.76953C40.815 6.73199 40.7258 6.71322 40.6226 6.71322C40.5175 6.71322 40.4274 6.73762 40.3523 6.78642C40.2773 6.83334 40.2163 6.8981 40.1693 6.98069C40.1243 7.06327 40.0905 7.16087 40.068 7.27349C40.0473 7.38423 40.037 7.50436 40.037 7.63387ZM43.4578 6.13324V9.17955H42.6441V6.13324H43.4578ZM42.5934 5.33928C42.5934 5.22103 42.6347 5.12343 42.7173 5.04647C42.7999 4.96952 42.9106 4.93104 43.0495 4.93104C43.1865 4.93104 43.2964 4.96952 43.3789 5.04647C43.4634 5.12343 43.5056 5.22103 43.5056 5.33928C43.5056 5.45753 43.4634 5.55513 43.3789 5.63209C43.2964 5.70904 43.1865 5.74752 43.0495 5.74752C42.9106 5.74752 42.7999 5.70904 42.7173 5.63209C42.6347 5.55513 42.5934 5.45753 42.5934 5.33928ZM44.9218 6.7836V9.17955H44.111V6.13324H44.8711L44.9218 6.7836ZM44.8036 7.54941H44.584C44.584 7.32417 44.613 7.12146 44.6712 6.94127C44.7294 6.7592 44.8111 6.60435 44.9162 6.47672C45.0213 6.34721 45.1461 6.24867 45.2906 6.1811C45.437 6.11165 45.6003 6.07693 45.7805 6.07693C45.9232 6.07693 46.0536 6.09757 46.1719 6.13887C46.2901 6.18016 46.3915 6.24585 46.4759 6.33595C46.5623 6.42604 46.628 6.54523 46.673 6.69351C46.7199 6.84179 46.7434 7.02292 46.7434 7.23689V9.17955H45.9269V7.23408C45.9269 7.09893 45.9082 6.99382 45.8706 6.91875C45.8331 6.84367 45.7777 6.79111 45.7045 6.76108C45.6332 6.72917 45.545 6.71322 45.4398 6.71322C45.331 6.71322 45.2362 6.7348 45.1555 6.77797C45.0767 6.82114 45.011 6.88121 44.9584 6.95816C44.9077 7.03324 44.8693 7.12146 44.843 7.22281C44.8167 7.32417 44.8036 7.43303 44.8036 7.54941ZM49.2886 6.13324H50.0234V9.07819C50.0234 9.35598 49.9615 9.59154 49.8376 9.78487C49.7156 9.98008 49.5448 10.1274 49.3252 10.2269C49.1056 10.3283 48.8503 10.3789 48.5594 10.3789C48.4317 10.3789 48.2966 10.362 48.1539 10.3283C48.0132 10.2945 47.878 10.2419 47.7485 10.1706C47.6209 10.0993 47.5139 10.0092 47.4276 9.9003L47.7851 9.42168C47.879 9.53054 47.9878 9.61501 48.1117 9.67507C48.2356 9.73701 48.3726 9.76798 48.5228 9.76798C48.6692 9.76798 48.793 9.74076 48.8944 9.68633C48.9958 9.63378 49.0737 9.55588 49.1281 9.45265C49.1825 9.35129 49.2097 9.22835 49.2097 9.08382V6.8371L49.2886 6.13324ZM47.2389 7.69299V7.63387C47.2389 7.40113 47.2671 7.18997 47.3234 7.00039C47.3816 6.80894 47.4632 6.64471 47.5683 6.50769C47.6753 6.37067 47.8048 6.26462 47.9569 6.18954C48.1089 6.11447 48.2806 6.07693 48.4721 6.07693C48.6748 6.07693 48.8447 6.11447 48.9817 6.18954C49.1187 6.26462 49.2313 6.37161 49.3195 6.51051C49.4078 6.64752 49.4763 6.80988 49.5251 6.99758C49.5757 7.1834 49.6152 7.38705 49.6433 7.60853V7.73804C49.6152 7.95014 49.5729 8.14722 49.5166 8.32928C49.4603 8.51135 49.3862 8.67089 49.2942 8.80791C49.2022 8.94305 49.0877 9.04816 48.9507 9.12324C48.8156 9.19832 48.6542 9.23586 48.4665 9.23586C48.2788 9.23586 48.1089 9.19738 47.9569 9.12043C47.8067 9.04347 47.6781 8.93554 47.5711 8.79665C47.4642 8.65775 47.3816 8.49446 47.3234 8.30676C47.2671 8.11906 47.2389 7.91448 47.2389 7.69299ZM48.0498 7.63387V7.69299C48.0498 7.81875 48.062 7.93606 48.0864 8.04492C48.1108 8.15379 48.1483 8.25045 48.199 8.33492C48.2515 8.4175 48.3163 8.48226 48.3933 8.52918C48.4721 8.57423 48.565 8.59675 48.672 8.59675C48.8203 8.59675 48.9413 8.56578 49.0352 8.50384C49.129 8.44003 49.1994 8.35275 49.2463 8.24201C49.2933 8.13127 49.3205 8.00363 49.328 7.85911V7.49028C49.3242 7.37203 49.3083 7.26598 49.2801 7.17214C49.252 7.07641 49.2125 6.99476 49.1619 6.92719C49.1112 6.85962 49.0455 6.80707 48.9648 6.76953C48.8841 6.73199 48.7884 6.71322 48.6776 6.71322C48.5706 6.71322 48.4777 6.73762 48.3989 6.78642C48.3219 6.83334 48.2572 6.8981 48.2046 6.98069C48.1539 7.06327 48.1155 7.16087 48.0892 7.27349C48.0629 7.38423 48.0498 7.50436 48.0498 7.63387ZM54.2747 8.10686C54.2747 8.03366 54.2635 7.96797 54.2409 7.90978C54.2203 7.84972 54.1809 7.79529 54.1227 7.74649C54.0645 7.69581 53.9829 7.64607 53.8777 7.59727C53.7726 7.54847 53.6366 7.49779 53.4695 7.44523C53.2837 7.38517 53.1072 7.3176 52.9402 7.24252C52.775 7.16744 52.6286 7.08016 52.501 6.98069C52.3752 6.87933 52.2758 6.76202 52.2025 6.62875C52.1312 6.49549 52.0956 6.34064 52.0956 6.16421C52.0956 5.9934 52.1331 5.83855 52.2082 5.69966C52.2833 5.55888 52.3884 5.43876 52.5235 5.33928C52.6587 5.23792 52.8182 5.16003 53.0021 5.1056C53.188 5.05117 53.3916 5.02395 53.6131 5.02395C53.9153 5.02395 54.179 5.07838 54.4042 5.18725C54.6295 5.29611 54.804 5.44533 54.9279 5.6349C55.0537 5.82447 55.1165 6.04126 55.1165 6.28527H54.2775C54.2775 6.16514 54.2522 6.06003 54.2015 5.96994C54.1527 5.87797 54.0776 5.80571 53.9763 5.75315C53.8768 5.7006 53.751 5.67432 53.599 5.67432C53.4526 5.67432 53.3306 5.69684 53.233 5.74189C53.1354 5.78506 53.0622 5.84418 53.0134 5.91926C52.9646 5.99246 52.9402 6.07505 52.9402 6.16702C52.9402 6.23647 52.9571 6.29935 52.9909 6.35566C53.0265 6.41197 53.0791 6.46452 53.1485 6.51332C53.218 6.56212 53.3034 6.60811 53.4047 6.65128C53.5061 6.69445 53.6234 6.73668 53.7567 6.77797C53.98 6.84554 54.1762 6.92156 54.3451 7.00602C54.5159 7.09049 54.6586 7.18527 54.7731 7.29038C54.8875 7.39549 54.9739 7.51468 55.0321 7.64795C55.0903 7.78121 55.1194 7.93231 55.1194 8.10123C55.1194 8.27955 55.0846 8.43909 55.0152 8.57986C54.9457 8.72063 54.8453 8.83982 54.7139 8.93742C54.5825 9.03502 54.4258 9.10916 54.2437 9.15984C54.0617 9.21052 53.858 9.23586 53.6328 9.23586C53.4301 9.23586 53.2302 9.20958 53.0331 9.15703C52.836 9.10259 52.6568 9.02095 52.4954 8.91208C52.3358 8.80322 52.2082 8.66432 52.1125 8.4954C52.0167 8.32647 51.9689 8.12657 51.9689 7.89571H52.8163C52.8163 8.02334 52.836 8.13127 52.8754 8.21948C52.9149 8.3077 52.9702 8.37902 53.0416 8.43346C53.1148 8.48789 53.2011 8.5273 53.3006 8.55171C53.4019 8.57611 53.5127 8.58831 53.6328 8.58831C53.7792 8.58831 53.8993 8.56766 53.9932 8.52637C54.0889 8.48507 54.1593 8.42783 54.2043 8.35462C54.2513 8.28142 54.2747 8.19884 54.2747 8.10686ZM57.1352 6.13324V6.70759H55.3615V6.13324H57.1352ZM55.8007 5.38151H56.6115V8.26171C56.6115 8.34993 56.6228 8.4175 56.6453 8.46443C56.6697 8.51135 56.7054 8.5442 56.7523 8.56297C56.7992 8.57986 56.8584 8.58831 56.9297 8.58831C56.9804 8.58831 57.0254 8.58643 57.0648 8.58268C57.1061 8.57704 57.1408 8.57141 57.169 8.56578L57.1718 9.16266C57.1024 9.18518 57.0273 9.20301 56.9466 9.21615C56.8659 9.22929 56.7767 9.23586 56.6791 9.23586C56.5008 9.23586 56.345 9.20677 56.2118 9.14858C56.0804 9.08852 55.979 8.99279 55.9077 8.8614C55.8364 8.73002 55.8007 8.55734 55.8007 8.34336V5.38151ZM57.3942 7.68736V7.62824C57.3942 7.40488 57.4261 7.19935 57.49 7.01166C57.5538 6.82208 57.6467 6.65785 57.7687 6.51895C57.8907 6.38006 58.0409 6.27213 58.2192 6.19518C58.3975 6.11634 58.6021 6.07693 58.8329 6.07693C59.0638 6.07693 59.2693 6.11634 59.4495 6.19518C59.6297 6.27213 59.7808 6.38006 59.9028 6.51895C60.0267 6.65785 60.1205 6.82208 60.1843 7.01166C60.2482 7.19935 60.2801 7.40488 60.2801 7.62824V7.68736C60.2801 7.90884 60.2482 8.11437 60.1843 8.30395C60.1205 8.49164 60.0267 8.65588 59.9028 8.79665C59.7808 8.93554 59.6306 9.04347 59.4523 9.12043C59.274 9.19738 59.0694 9.23586 58.8386 9.23586C58.6077 9.23586 58.4022 9.19738 58.222 9.12043C58.0437 9.04347 57.8926 8.93554 57.7687 8.79665C57.6467 8.65588 57.5538 8.49164 57.49 8.30395C57.4261 8.11437 57.3942 7.90884 57.3942 7.68736ZM58.2051 7.62824V7.68736C58.2051 7.815 58.2163 7.93418 58.2389 8.04492C58.2614 8.15567 58.2971 8.25327 58.3459 8.33773C58.3965 8.42032 58.4622 8.48507 58.5429 8.532C58.6236 8.57892 58.7222 8.60238 58.8386 8.60238C58.9512 8.60238 59.0478 8.57892 59.1286 8.532C59.2093 8.48507 59.274 8.42032 59.3228 8.33773C59.3716 8.25327 59.4073 8.15567 59.4298 8.04492C59.4542 7.93418 59.4664 7.815 59.4664 7.68736V7.62824C59.4664 7.50436 59.4542 7.38799 59.4298 7.27912C59.4073 7.16838 59.3707 7.07078 59.32 6.98632C59.2712 6.89998 59.2064 6.83241 59.1257 6.7836C59.045 6.7348 58.9474 6.7104 58.8329 6.7104C58.7184 6.7104 58.6208 6.7348 58.5401 6.7836C58.4613 6.83241 58.3965 6.89998 58.3459 6.98632C58.2971 7.07078 58.2614 7.16838 58.2389 7.27912C58.2163 7.38799 58.2051 7.50436 58.2051 7.62824ZM61.5893 6.79768V9.17955H60.7784V6.13324H61.5414L61.5893 6.79768ZM62.5071 6.11353L62.493 6.86525C62.4536 6.85962 62.4057 6.85493 62.3494 6.85117C62.295 6.84554 62.2453 6.84273 62.2002 6.84273C62.0857 6.84273 61.9862 6.85774 61.9018 6.88778C61.8192 6.91593 61.7497 6.95816 61.6934 7.01447C61.639 7.07078 61.5977 7.13929 61.5695 7.22C61.5433 7.30071 61.5283 7.39268 61.5245 7.49591L61.3612 7.44523C61.3612 7.24815 61.3809 7.06703 61.4203 6.90185C61.4597 6.7348 61.517 6.58934 61.5921 6.46546C61.669 6.34158 61.7629 6.24585 61.8736 6.17828C61.9844 6.11071 62.1111 6.07693 62.2537 6.07693C62.2987 6.07693 62.3447 6.08068 62.3917 6.08819C62.4386 6.09382 62.4771 6.10227 62.5071 6.11353ZM64.2358 9.23586C63.9993 9.23586 63.7872 9.19832 63.5995 9.12324C63.4118 9.04629 63.2522 8.94024 63.1209 8.8051C62.9913 8.66995 62.8919 8.51323 62.8224 8.33492C62.753 8.15473 62.7182 7.96328 62.7182 7.76056V7.64795C62.7182 7.41708 62.7511 7.20592 62.8168 7.01447C62.8825 6.82302 62.9763 6.65691 63.0983 6.51614C63.2222 6.37536 63.3724 6.26744 63.5488 6.19236C63.7252 6.1154 63.9242 6.07693 64.1457 6.07693C64.3615 6.07693 64.553 6.11259 64.72 6.18391C64.8871 6.25524 65.0269 6.35659 65.1395 6.48798C65.254 6.61937 65.3404 6.77703 65.3986 6.96098C65.4567 7.14304 65.4858 7.34576 65.4858 7.56911V7.90697H63.0645V7.3664H64.6891V7.30446C64.6891 7.19184 64.6684 7.09143 64.6271 7.00321C64.5877 6.91311 64.5276 6.84179 64.4469 6.78924C64.3662 6.73668 64.263 6.7104 64.1372 6.7104C64.0302 6.7104 63.9383 6.73386 63.8613 6.78079C63.7844 6.82771 63.7215 6.89341 63.6727 6.97787C63.6258 7.06233 63.5901 7.16181 63.5657 7.27631C63.5432 7.38893 63.5319 7.51281 63.5319 7.64795V7.76056C63.5319 7.88257 63.5488 7.99519 63.5826 8.09842C63.6183 8.20165 63.668 8.29081 63.7318 8.36589C63.7975 8.44096 63.8763 8.49915 63.9683 8.54044C64.0622 8.58174 64.1682 8.60238 64.2865 8.60238C64.4329 8.60238 64.5689 8.57423 64.6947 8.51792C64.8223 8.45973 64.9321 8.37246 65.0241 8.25608L65.4183 8.68403C65.3544 8.776 65.2672 8.86422 65.1564 8.94868C65.0476 9.03315 64.9162 9.10259 64.7623 9.15703C64.6084 9.20958 64.4329 9.23586 64.2358 9.23586Z" fill="#545BE8"/>
<path d="M15.2132 0.472809H0.867265C0.818552 0.472809 0.778999 0.512535 0.778999 0.561543V14.3604C0.778999 14.4094 0.818552 14.4492 0.867265 14.4492H15.2132C15.2619 14.4492 15.3012 14.4094 15.3012 14.3604V0.561543C15.3012 0.512535 15.2619 0.472809 15.2132 0.472809Z" fill="#545BE8"/>
<path d="M4.61715 3.54862V11.3734" stroke="white" stroke-width="1.26926"/>
<path d="M6.96184 3.54862V7.4462" stroke="white" stroke-width="1.26685"/>
<path d="M8.748 3.54889V4.87276H10.9854L12.6084 8.22649H14.0698L11.7488 3.54889H8.748Z" fill="white"/>
<path d="M9.41282 6.30745V11.5287" stroke="white" stroke-width="1.46628"/>
</svg>
