<svg width="11" height="11" viewBox="0 0 11 11" fill="none" xmlns="http://www.w3.org/2000/svg">
<rect x="0.266752" y="0.684171" width="9.82171" height="9.82171" stroke="white" stroke-width="0.316829"/>
<g clip-path="url(#clip0_288_703)">
<path d="M5.13851 4.31431C4.42643 4.31431 3.85207 4.88572 3.85207 5.59413C3.85207 6.30254 4.42643 6.87395 5.13851 6.87395C5.85059 6.87395 6.42496 6.30254 6.42496 5.59413C6.42496 4.88572 5.85059 4.31431 5.13851 4.31431ZM5.13851 6.42618C4.67835 6.42618 4.30215 6.05304 4.30215 5.59413C4.30215 5.13522 4.67723 4.76208 5.13851 4.76208C5.5998 4.76208 5.97487 5.13522 5.97487 5.59413C5.97487 6.05304 5.59868 6.42618 5.13851 6.42618ZM6.77764 4.26196C6.77764 4.42793 6.64328 4.56048 6.47758 4.56048C6.31076 4.56048 6.17752 4.42681 6.17752 4.26196C6.17752 4.09711 6.31187 3.96345 6.47758 3.96345C6.64328 3.96345 6.77764 4.09711 6.77764 4.26196ZM7.62967 4.56493C7.61064 4.16506 7.51883 3.81085 7.22437 3.51902C6.93103 3.22719 6.57499 3.13586 6.17304 3.11581C5.75878 3.09242 4.51712 3.09242 4.10286 3.11581C3.70204 3.13475 3.346 3.22608 3.05154 3.51791C2.75708 3.80974 2.66639 4.16394 2.64624 4.56382C2.62272 4.97594 2.62272 6.2112 2.64624 6.62333C2.66527 7.0232 2.75708 7.37741 3.05154 7.66924C3.346 7.96107 3.70092 8.0524 4.10286 8.07245C4.51712 8.09584 5.75878 8.09584 6.17304 8.07245C6.57499 8.05352 6.93103 7.96218 7.22437 7.66924C7.51771 7.37741 7.60952 7.0232 7.62967 6.62333C7.65318 6.2112 7.65318 4.97706 7.62967 4.56493ZM7.09449 7.06553C7.00716 7.28384 6.8381 7.45204 6.61753 7.54003C6.28724 7.67035 5.50351 7.64028 5.13851 7.64028C4.77352 7.64028 3.98866 7.66924 3.65949 7.54003C3.44005 7.45315 3.27098 7.28496 3.18253 7.06553C3.05154 6.73694 3.08177 5.95725 3.08177 5.59413C3.08177 5.23101 3.05266 4.4502 3.18253 4.12273C3.26986 3.90442 3.43893 3.73623 3.65949 3.64823C3.98978 3.51791 4.77352 3.54798 5.13851 3.54798C5.50351 3.54798 6.28836 3.51902 6.61753 3.64823C6.83698 3.73511 7.00604 3.9033 7.09449 4.12273C7.22549 4.45132 7.19526 5.23101 7.19526 5.59413C7.19526 5.95725 7.22549 6.73806 7.09449 7.06553Z" fill="white"/>
</g>
<defs>
<clipPath id="clip0_288_703">
<rect width="5.06927" height="5.70292" fill="white" transform="translate(2.64288 2.74365)"/>
</clipPath>
</defs>
</svg>
