<svg width="21" height="21" viewBox="0 0 21 21" fill="none" xmlns="http://www.w3.org/2000/svg">
<circle cx="10.4744" cy="10.359" r="9.88463" fill="white"/>
<path d="M10.4305 7.89876L10.7545 8.65658C10.7765 8.72248 10.8369 8.76092 10.8973 8.76641L11.721 8.84329C11.8968 8.85977 11.9627 9.07393 11.8364 9.18925L11.2158 9.73291C11.1664 9.77684 11.1444 9.84274 11.1609 9.90314L11.3421 10.7104C11.3806 10.8806 11.1993 11.0124 11.0456 10.9246L10.3372 10.5017C10.2823 10.4688 10.2109 10.4688 10.156 10.5017L9.44757 10.9246C9.2993 11.0124 9.11259 10.8806 9.15103 10.7104L9.33225 9.90314C9.34873 9.84274 9.32676 9.77684 9.27734 9.73291L8.6568 9.18925C8.52501 9.07393 8.5964 8.85977 8.77212 8.84329L9.59584 8.76641C9.66174 8.76092 9.71665 8.72248 9.74411 8.66207L10.0681 7.90425C10.134 7.73951 10.3592 7.73951 10.4305 7.89876Z" stroke="#F0C932" stroke-width="0.549146" stroke-miterlimit="10" stroke-linecap="round" stroke-linejoin="round"/>
<path d="M13.9821 9.50482C13.9963 7.44248 12.3359 5.75912 10.2736 5.74493C8.21123 5.73074 6.52787 7.39109 6.51368 9.45343C6.49948 11.5158 8.15983 13.1991 10.2222 13.2133C12.2845 13.2275 13.9679 11.5672 13.9821 9.50482Z" stroke="#F0C932" stroke-width="0.549146" stroke-miterlimit="10" stroke-linecap="round" stroke-linejoin="round"/>
<path d="M9.73861 13.1761L8.81055 15.5099L7.63538 14.1645L5.86163 14.3293L7.03681 11.3858" stroke="#F0C932" stroke-width="0.549146" stroke-miterlimit="10" stroke-linecap="round" stroke-linejoin="round"/>
<path d="M10.7491 13.1761L11.6826 15.5099L12.8523 14.1645L14.6315 14.3293L13.4509 11.3858" stroke="#F0C932" stroke-width="0.549146" stroke-miterlimit="10" stroke-linecap="round" stroke-linejoin="round"/>
</svg>
