<svg width="12" height="11" viewBox="0 0 12 11" fill="none" xmlns="http://www.w3.org/2000/svg">
<rect x="1.05905" y="0.684171" width="9.82171" height="9.82171" stroke="white" stroke-width="0.316829"/>
<g clip-path="url(#clip0_288_698)">
<path d="M4.5607 7.81287V4.6064H3.48532V7.81287H4.5607ZM4.02315 4.16835C4.39815 4.16835 4.63158 3.92213 4.63158 3.61444C4.62459 3.29981 4.39817 3.06042 4.03027 3.06042C3.66242 3.06042 3.42188 3.29981 3.42188 3.61444C3.42188 3.92215 3.65524 4.16835 4.01613 4.16835H4.02312H4.02315ZM5.15592 7.81287H6.2313V6.02222C6.2313 5.92639 6.23829 5.83065 6.26669 5.76215C6.34443 5.57068 6.52137 5.37237 6.81843 5.37237C7.20757 5.37237 7.36325 5.66641 7.36325 6.09746V7.81284H8.43856V5.97429C8.43856 4.98939 7.90802 4.53112 7.20049 4.53112C6.62036 4.53112 6.36565 4.85249 6.22415 5.07138H6.23132V4.60634H5.15594C5.17006 4.90721 5.15594 7.8128 5.15594 7.8128L5.15592 7.81287Z" fill="white"/>
</g>
<defs>
<clipPath id="clip0_288_698">
<rect width="5.06927" height="4.75244" fill="white" transform="translate(3.43524 3.06049)"/>
</clipPath>
</defs>
</svg>
