<svg width="71" height="20" viewBox="0 0 71 20" fill="none" xmlns="http://www.w3.org/2000/svg">
<path d="M24.9966 12.4139V7.02225H27.1237C27.5327 7.02225 27.8811 7.10035 28.1689 7.25655C28.4567 7.411 28.6761 7.62599 28.827 7.90154C28.9797 8.17534 29.0561 8.49125 29.0561 8.84929C29.0561 9.20733 28.9789 9.52324 28.8244 9.79703C28.67 10.0708 28.4462 10.2841 28.1531 10.4368C27.8618 10.5895 27.509 10.6658 27.0948 10.6658H25.739V9.75228H26.9105C27.1299 9.75228 27.3107 9.71454 27.4528 9.63908C27.5967 9.56185 27.7038 9.45567 27.774 9.32053C27.846 9.18363 27.8819 9.02655 27.8819 8.84929C27.8819 8.67027 27.846 8.51407 27.774 8.38068C27.7038 8.24554 27.5967 8.14111 27.4528 8.0674C27.3089 7.99193 27.1264 7.9542 26.9052 7.9542H26.1365V12.4139H24.9966ZM30.897 7.02225V12.4139H29.7755V7.02225H30.897ZM32.9484 12.4902C32.6904 12.4902 32.4605 12.4455 32.2587 12.3559C32.0568 12.2647 31.8971 12.1304 31.7795 11.9532C31.6637 11.7741 31.6058 11.5512 31.6058 11.2845C31.6058 11.0598 31.647 10.8711 31.7295 10.7185C31.812 10.5658 31.9243 10.4429 32.0665 10.3499C32.2087 10.2569 32.3701 10.1867 32.5509 10.1393C32.7334 10.0919 32.9247 10.0585 33.1248 10.0392C33.36 10.0147 33.5495 9.99185 33.6935 9.97079C33.8374 9.94797 33.9418 9.91462 34.0067 9.87075C34.0717 9.82687 34.1041 9.76193 34.1041 9.67593V9.66014C34.1041 9.4934 34.0515 9.36441 33.9462 9.27314C33.8426 9.18188 33.6952 9.13624 33.5039 9.13624C33.3021 9.13624 33.1415 9.181 33.0221 9.27051C32.9028 9.35826 32.8238 9.46883 32.7852 9.60222L31.7479 9.51798C31.8006 9.27226 31.9041 9.0599 32.0586 8.88088C32.213 8.70011 32.4122 8.56145 32.6562 8.46492C32.9019 8.36664 33.1862 8.3175 33.5092 8.3175C33.7338 8.3175 33.9488 8.34382 34.1542 8.39648C34.3613 8.44913 34.5447 8.53074 34.7044 8.64131C34.8659 8.75188 34.9931 8.89404 35.0861 9.0678C35.1791 9.23979 35.2256 9.44602 35.2256 9.68646V12.4139H34.1621V11.8531H34.1305C34.0655 11.9795 33.9787 12.0909 33.8698 12.1875C33.761 12.2822 33.6303 12.3568 33.4776 12.4112C33.3249 12.4639 33.1485 12.4902 32.9484 12.4902ZM33.2696 11.7162C33.4346 11.7162 33.5803 11.6837 33.7066 11.6188C33.833 11.5521 33.9321 11.4626 34.0041 11.3503C34.0761 11.238 34.112 11.1107 34.112 10.9686V10.5394C34.0769 10.5623 34.0287 10.5833 33.9673 10.6026C33.9076 10.6202 33.84 10.6368 33.7645 10.6526C33.6891 10.6667 33.6136 10.6798 33.5381 10.6921C33.4627 10.7027 33.3942 10.7123 33.3328 10.7211C33.2012 10.7404 33.0862 10.7711 32.9879 10.8132C32.8896 10.8553 32.8133 10.9124 32.7589 10.9843C32.7045 11.0546 32.6773 11.1423 32.6773 11.2476C32.6773 11.4003 32.7325 11.517 32.8431 11.5977C32.9554 11.6767 33.0976 11.7162 33.2696 11.7162ZM36.6433 13.9303C36.5012 13.9303 36.3678 13.9188 36.2432 13.896C36.1203 13.875 36.0185 13.8478 35.9378 13.8144L36.1905 12.9772C36.3221 13.0176 36.4406 13.0396 36.5459 13.0431C36.653 13.0466 36.7451 13.022 36.8223 12.9693C36.9013 12.9167 36.9654 12.8272 37.0145 12.7008L37.0803 12.5297L35.6298 8.37015H36.8092L37.6463 11.3398H37.6885L38.5335 8.37015H39.7209L38.1492 12.8509C38.0737 13.0685 37.971 13.2581 37.8412 13.4195C37.713 13.5828 37.5507 13.7082 37.3541 13.796C37.1576 13.8855 36.9206 13.9303 36.6433 13.9303ZM43.0057 7.02225L44.3089 11.1186H44.3589L45.6647 7.02225H46.9283L45.0697 12.4139H43.6007L41.7394 7.02225H43.0057ZM47.5562 12.4139V8.37015H48.6777V12.4139H47.5562ZM48.1196 7.84889C47.9529 7.84889 47.8098 7.7936 47.6905 7.68303C47.5729 7.57071 47.5141 7.43645 47.5141 7.28024C47.5141 7.1258 47.5729 6.99329 47.6905 6.88272C47.8098 6.77039 47.9529 6.71423 48.1196 6.71423C48.2863 6.71423 48.4285 6.77039 48.5461 6.88272C48.6654 6.99329 48.7251 7.1258 48.7251 7.28024C48.7251 7.43645 48.6654 7.57071 48.5461 7.68303C48.4285 7.7936 48.2863 7.84889 48.1196 7.84889ZM51.0662 12.4797C50.759 12.4797 50.4808 12.4007 50.2316 12.2427C49.9841 12.083 49.7876 11.8487 49.6419 11.5398C49.498 11.2292 49.426 10.8483 49.426 10.3973C49.426 9.93393 49.5006 9.54869 49.6498 9.24155C49.799 8.93265 49.9973 8.70186 50.2448 8.54917C50.494 8.39472 50.7669 8.3175 51.0635 8.3175C51.2899 8.3175 51.4786 8.35611 51.6295 8.43333C51.7822 8.5088 51.9051 8.60358 51.9981 8.71766C52.0929 8.82998 52.1648 8.94055 52.214 9.04937H52.2482V7.02225H53.3671V12.4139H52.2614V11.7662H52.214C52.1613 11.8786 52.0867 11.99 51.9902 12.1006C51.8954 12.2094 51.7717 12.2998 51.619 12.3717C51.4681 12.4437 51.2838 12.4797 51.0662 12.4797ZM51.4216 11.5872C51.6023 11.5872 51.755 11.5381 51.8796 11.4398C52.006 11.3398 52.1025 11.2002 52.1692 11.0212C52.2377 10.8422 52.2719 10.6325 52.2719 10.392C52.2719 10.1516 52.2386 9.94271 52.1719 9.76544C52.1052 9.58818 52.0086 9.45128 51.8823 9.35475C51.7559 9.25822 51.6023 9.20996 51.4216 9.20996C51.2373 9.20996 51.082 9.25998 50.9556 9.36002C50.8292 9.46006 50.7336 9.59871 50.6686 9.77597C50.6037 9.95324 50.5712 10.1586 50.5712 10.392C50.5712 10.6272 50.6037 10.8352 50.6686 11.0159C50.7353 11.195 50.831 11.3354 50.9556 11.4372C51.082 11.5372 51.2373 11.5872 51.4216 11.5872ZM56.132 12.4928C55.716 12.4928 55.358 12.4086 55.0579 12.2401C54.7595 12.0699 54.5296 11.8294 54.3681 11.5188C54.2067 11.2064 54.1259 10.8369 54.1259 10.4104C54.1259 9.99448 54.2067 9.62942 54.3681 9.31526C54.5296 9.0011 54.7569 8.75627 55.05 8.58076C55.3448 8.40525 55.6906 8.3175 56.0872 8.3175C56.354 8.3175 56.6024 8.3605 56.8323 8.4465C57.0639 8.53074 57.2658 8.65798 57.4378 8.82823C57.6115 8.99847 57.7467 9.21259 57.8432 9.47059C57.9397 9.72683 57.988 10.0269 57.988 10.3709V10.679H54.5735V9.98395H56.9323C56.9323 9.82248 56.8972 9.67944 56.827 9.55483C56.7568 9.43022 56.6594 9.33281 56.5348 9.26261C56.4119 9.19065 56.2689 9.15467 56.1057 9.15467C55.9354 9.15467 55.7845 9.19416 55.6529 9.27314C55.523 9.35036 55.4212 9.45479 55.3475 9.58642C55.2738 9.7163 55.236 9.86109 55.2343 10.0208V10.6816C55.2343 10.8817 55.2711 11.0546 55.3448 11.2002C55.4203 11.3459 55.5265 11.4582 55.6634 11.5372C55.8003 11.6162 55.9626 11.6557 56.1504 11.6557C56.275 11.6557 56.3891 11.6381 56.4927 11.603C56.5962 11.5679 56.6848 11.5153 56.7586 11.4451C56.8323 11.3749 56.8884 11.2889 56.927 11.1871L57.9643 11.2555C57.9116 11.5047 57.8037 11.7224 57.6405 11.9084C57.479 12.0927 57.2702 12.2366 57.0139 12.3402C56.7594 12.4419 56.4655 12.4928 56.132 12.4928ZM60.5469 12.4928C60.138 12.4928 59.7843 12.406 59.486 12.2322C59.1893 12.0567 58.9603 11.8127 58.7988 11.5003C58.6374 11.1862 58.5566 10.822 58.5566 10.4078C58.5566 9.99009 58.6374 9.62504 58.7988 9.31263C58.9603 8.99847 59.1893 8.75451 59.486 8.58076C59.7843 8.40525 60.138 8.3175 60.5469 8.3175C60.9558 8.3175 61.3086 8.40525 61.6052 8.58076C61.9036 8.75451 62.1335 8.99847 62.295 9.31263C62.4564 9.62504 62.5372 9.99009 62.5372 10.4078C62.5372 10.822 62.4564 11.1862 62.295 11.5003C62.1335 11.8127 61.9036 12.0567 61.6052 12.2322C61.3086 12.406 60.9558 12.4928 60.5469 12.4928ZM60.5522 11.6241C60.7382 11.6241 60.8935 11.5714 61.0181 11.4661C61.1428 11.3591 61.2367 11.2134 61.2998 11.0291C61.3648 10.8448 61.3972 10.6351 61.3972 10.3999C61.3972 10.1647 61.3648 9.95499 61.2998 9.77071C61.2367 9.58642 61.1428 9.44075 61.0181 9.33369C60.8935 9.22663 60.7382 9.1731 60.5522 9.1731C60.3644 9.1731 60.2064 9.22663 60.0783 9.33369C59.9519 9.44075 59.8563 9.58642 59.7913 9.77071C59.7282 9.95499 59.6966 10.1647 59.6966 10.3999C59.6966 10.6351 59.7282 10.8448 59.7913 11.0291C59.8563 11.2134 59.9519 11.3591 60.0783 11.4661C60.2064 11.5714 60.3644 11.6241 60.5522 11.6241Z" fill="#141E32"/>
<circle cx="14.4374" cy="9.94439" r="6.58976" fill="#F0C932"/>
<path d="M17.4234 9.94434L13.0989 12.4411V7.44758L17.4234 9.94434Z" fill="white"/>
</svg>
