<svg width="64" height="11" viewBox="0 0 64 11" fill="none" xmlns="http://www.w3.org/2000/svg">
<path d="M5.64417 1.42259C5.70582 1.23287 5.97423 1.23287 6.03587 1.42259L6.90341 4.09259C6.93097 4.17743 7.01004 4.23488 7.09926 4.23488H9.90666C10.1061 4.23488 10.1891 4.49015 10.0277 4.60741L7.75646 6.25756C7.68429 6.31 7.65409 6.40295 7.68166 6.4878L8.54919 9.15779C8.61084 9.34752 8.39369 9.50528 8.2323 9.38803L5.96106 7.73788C5.88889 7.68544 5.79115 7.68544 5.71898 7.73788L3.44774 9.38803C3.28635 9.50528 3.06921 9.34752 3.13085 9.15779L3.99839 6.4878C4.02595 6.40295 3.99575 6.31 3.92358 6.25756L1.65234 4.60741C1.49095 4.49015 1.5739 4.23488 1.77339 4.23488H4.58079C4.67 4.23488 4.74907 4.17743 4.77664 4.09259L5.64417 1.42259Z" fill="#F1CC4A"/>
<path d="M32.0032 1.42259C32.0648 1.23287 32.3332 1.23287 32.3949 1.42259L33.2624 4.09259C33.29 4.17743 33.3691 4.23488 33.4583 4.23488H36.2657C36.4652 4.23488 36.5481 4.49015 36.3867 4.60741L34.1155 6.25756C34.0433 6.31 34.0131 6.40295 34.0407 6.4878L34.9082 9.15779C34.9698 9.34752 34.7527 9.50528 34.5913 9.38803L32.3201 7.73788C32.2479 7.68544 32.1502 7.68544 32.078 7.73788L29.8068 9.38803C29.6454 9.50528 29.4282 9.34752 29.4899 9.15779L30.3574 6.4878C30.385 6.40295 30.3548 6.31 30.2826 6.25756L28.0114 4.60741C27.85 4.49015 27.9329 4.23488 28.1324 4.23488H30.9398C31.029 4.23488 31.1081 4.17743 31.1356 4.09259L32.0032 1.42259Z" fill="#F1CC4A"/>
<path d="M18.8237 1.42259C18.8853 1.23287 19.1537 1.23287 19.2154 1.42259L20.0829 4.09259C20.1105 4.17743 20.1895 4.23488 20.2788 4.23488H23.0862C23.2857 4.23488 23.3686 4.49015 23.2072 4.60741L20.936 6.25756C20.8638 6.31 20.8336 6.40295 20.8612 6.4878L21.7287 9.15779C21.7903 9.34752 21.5732 9.50528 21.4118 9.38803L19.1406 7.73788C19.0684 7.68544 18.9707 7.68544 18.8985 7.73788L16.6272 9.38803C16.4659 9.50528 16.2487 9.34752 16.3104 9.15779L17.1779 6.4878C17.2055 6.40295 17.1753 6.31 17.1031 6.25756L14.8318 4.60741C14.6705 4.49015 14.7534 4.23488 14.9529 4.23488H17.7603C17.8495 4.23488 17.9286 4.17743 17.9561 4.09259L18.8237 1.42259Z" fill="#F1CC4A"/>
<path d="M45.1827 1.42259C45.2443 1.23287 45.5127 1.23287 45.5744 1.42259L46.4419 4.09259C46.4695 4.17743 46.5486 4.23488 46.6378 4.23488H49.4452C49.6447 4.23488 49.7276 4.49015 49.5662 4.60741L47.295 6.25756C47.2228 6.31 47.1926 6.40295 47.2202 6.4878L48.0877 9.15779C48.1493 9.34752 47.9322 9.50528 47.7708 9.38803L45.4996 7.73788C45.4274 7.68544 45.3297 7.68544 45.2575 7.73788L42.9863 9.38803C42.8249 9.50528 42.6077 9.34752 42.6694 9.15779L43.5369 6.4878C43.5645 6.40295 43.5343 6.31 43.4621 6.25756L41.1909 4.60741C41.0295 4.49015 41.1124 4.23488 41.3119 4.23488H44.1193C44.2085 4.23488 44.2876 4.17743 44.3151 4.09259L45.1827 1.42259Z" fill="#F1CC4A"/>
<path d="M58.3622 1.42259C58.4238 1.23287 58.6922 1.23287 58.7539 1.42259L59.6214 4.09259C59.649 4.17743 59.7281 4.23488 59.8173 4.23488H62.6247C62.8242 4.23488 62.9071 4.49015 62.7457 4.60741L60.4745 6.25756C60.4023 6.31 60.3721 6.40295 60.3997 6.4878L61.2672 9.15779C61.3289 9.34752 61.1117 9.50528 60.9503 9.38803L58.6791 7.73788C58.6069 7.68544 58.5092 7.68544 58.437 7.73788L56.1658 9.38803C56.0044 9.50528 55.7872 9.34752 55.8489 9.15779L56.7164 6.4878C56.744 6.40295 56.7138 6.31 56.6416 6.25756L54.3704 4.60741C54.209 4.49015 54.2919 4.23488 54.4914 4.23488H57.2988C57.388 4.23488 57.4671 4.17743 57.4947 4.09259L58.3622 1.42259Z" fill="#F1CC4A"/>
</svg>
