<svg width="11" height="11" viewBox="0 0 11 11" fill="none" xmlns="http://www.w3.org/2000/svg">
<rect x="0.851164" y="0.684171" width="9.82171" height="9.82171" stroke="white" stroke-width="0.316829"/>
<g clip-path="url(#clip0_288_693)">
<path d="M8.54347 3.91758C8.33216 4.00771 8.10803 4.06687 7.87853 4.09309C8.11758 3.95514 8.30113 3.73669 8.38756 3.47641C8.16031 3.60625 7.91169 3.69773 7.65242 3.7469C7.44123 3.53028 7.14037 3.3949 6.80737 3.3949C6.16801 3.3949 5.64963 3.89398 5.64963 4.50953C5.64963 4.5969 5.65988 4.68197 5.67961 4.76357C4.71745 4.71707 3.86441 4.27332 3.29339 3.59894C3.19376 3.76356 3.13667 3.95506 3.13667 4.15931C3.13667 4.54603 3.34107 4.88719 3.6517 5.08709C3.46785 5.08155 3.28805 5.03374 3.1273 4.94766C3.12724 4.95233 3.12724 4.957 3.12724 4.96169C3.12724 5.50175 3.5263 5.95227 4.05589 6.05467C3.88541 6.09931 3.70659 6.10584 3.53308 6.07377C3.6804 6.51661 4.10795 6.83886 4.61454 6.84788C4.21832 7.14683 3.71912 7.32504 3.17674 7.32504C3.08328 7.32504 2.99115 7.31975 2.90057 7.30946C3.41291 7.62572 4.02144 7.81026 4.67522 7.81026C6.80469 7.81026 7.96913 6.11176 7.96913 4.6388C7.96913 4.59045 7.96803 4.54238 7.96578 4.49459C8.19243 4.33683 8.38805 4.14144 8.54347 3.91758Z" fill="white"/>
</g>
<defs>
<clipPath id="clip0_288_693">
<rect width="5.70292" height="4.43561" fill="white" transform="translate(2.91058 3.37726)"/>
</clipPath>
</defs>
</svg>
